<?xml version="1.0" encoding="utf-8"?>
<!-- Generator: Adobe Illustrator 20.0.0, SVG Export Plug-In . SVG Version: 6.00 Build 0)  -->
<svg version="1.1" id="Layer_1" xmlns="http://www.w3.org/2000/svg" xmlns:xlink="http://www.w3.org/1999/xlink" x="0px" y="0px"
	 viewBox="0 0 1417.3 1417.3" style="enable-background:new 0 0 1417.3 1417.3;" xml:space="preserve">
<g>
	<path d="M471.1,100.9h60.4V24.7h18.1v174.1h-18.1v-82.7h-60.4v82.7h-18.1V24.7h18.1V100.9z"/>
	<path d="M679,39.9h-23.7v143.6H679v15.2h-65.3v-15.2h23.5V39.9h-23.5V24.7H679V39.9z"/>
	<path d="M746,24.7h44.2c33.6,0,56.1,19.1,56.1,87c0,67-20.8,87-58.8,87H746V24.7z M764.1,183.6h22.2c25.1,0,41.8-7,41.8-71.8
		c0-66.7-19.1-71.8-42.3-71.8h-21.8L764.1,183.6L764.1,183.6z"/>
	<path d="M988,39.9h-72.3v61.9h52v15.2h-52v66.5h74v15.2h-92.1V24.7H988V39.9z"/>
</g>
<path d="M777.4,784.8l-14.3,10.6l-16.4-19.1c-10.4,12.3-24.2,19.1-40.1,19.1c-24.2,0-41.3-15-41.3-39.7c0-23.9,14-41.6,29-58.8
	c-8.2-13.3-16.2-26.8-16.2-42.8c0-29.3,19.8-39.7,31.9-39.7c19.1,0,30.9,16,30.9,33.8c0,21-12.3,34.8-25.1,49.8l28.5,45.9
	c0.7-3.6,1.2-7.7,1.7-12.1c1-10.2,1-21.3,1-29h17.6c-0.2,19.3-1,39.4-8.2,57.8L777.4,784.8z M703.9,712.8
	c-10.2,12.3-20.6,26.1-20.6,42.8c0,14.5,8,24.7,23.2,24.7c12.8,0,23.5-6.5,30.5-17.2L703.9,712.8z M722.8,647.5
	c0-7-3.9-17.6-12.6-17.6c-10.4,0-14,13.8-14,22c0,12.1,4.1,21.3,10.2,31.4C713.8,671.9,722.8,661.8,722.8,647.5z"/>
<g>
	<path d="M533.3,1246.1c-10.6-9.4-22.7-19.6-37.7-19.6c-15.5,0-28,10.6-28,26.6c0,9.2,1.7,17.4,25.1,31.7l13.8,8.5
		c31.9,19.6,40.6,28.8,40.6,49.1c0,31.2-20.8,49.8-51.3,49.8c-22.5,0-39.2-10.9-52.7-28.3l14-11.1c8.5,13.5,22,24.2,38.7,24.2
		c18.1,0,33.1-13.5,33.1-32.2c0-14-1-18.9-31.7-37.2l-15.7-9.4c-17.2-10.2-32.2-22-32.2-43.8c0-27.3,20.8-43,46.9-43
		c18.1,0,34.8,9.7,47.9,21.8L533.3,1246.1z"/>
	<path d="M691.9,1229.9h-72.3v61.9h52v15.2h-52v66.5h74v15.2h-92.1v-174.1h90.4V1229.9z"/>
	<path d="M837,1229.9h-72.3v61.9h52v15.2h-52v66.5h74v15.2h-92.1v-174.1H837V1229.9z"/>
	<path d="M907.4,1291.3c12.6-1.5,42.3-31.7,59.2-78.8l17.9,9.4l-14.3,23.9c-23,38.4-34.8,48.1-45.9,55.1l75.2,87.8h-24.2l-66.5-82
		h-1.5v82h-18.1v-174.1h18.1L907.4,1291.3L907.4,1291.3z"/>
</g>
<text transform="matrix(1 0 0 1 242.4247 2038.2032)" style="font-family:'LetterGothicStd-Bold'; font-size:200px;">HIDE</text>
<text transform="matrix(1 0 0 1 422.4217 2268.2031)" style="font-family:'LetterGothicStd-Bold'; font-size:200px;">&amp;</text>
<text transform="matrix(1 0 0 1 242.4247 2498.2031)" style="font-family:'LetterGothicStd-Bold'; font-size:200px;">SEEK</text>
</svg>
