<?xml version="1.0" encoding="utf-8"?>
<!-- Generator: Adobe Illustrator 17.0.0, SVG Export Plug-In . SVG Version: 6.00 Build 0)  -->
<!DOCTYPE svg PUBLIC "-//W3C//DTD SVG 1.1//EN" "http://www.w3.org/Graphics/SVG/1.1/DTD/svg11.dtd">
<svg version="1.1" id="Layer_1" xmlns="http://www.w3.org/2000/svg" xmlns:xlink="http://www.w3.org/1999/xlink" x="0px" y="0px"
	 width="1417.32px" height="1417.32px" viewBox="0 0 1417.32 1417.32" enable-background="new 0 0 1417.32 1417.32"
	 xml:space="preserve">
<g>
	<path d="M501.663,454.862h49.999v-62.999h15V535.86h-15v-68.399h-49.999v68.399h-15V391.863h15V454.862z"/>
	<path d="M673.66,404.462h-19.6v118.798h19.6v12.6h-53.999v-12.6h19.4V404.462h-19.4v-12.6h53.999V404.462z"/>
	<path d="M729.059,391.863h36.6c27.8,0,46.399,15.799,46.399,71.999c0,55.399-17.2,71.999-48.6,71.999h-34.399V391.863z
		 M744.059,523.261h18.399c20.8,0,34.6-5.8,34.6-59.399c0-55.199-15.8-59.399-35-59.399h-17.999V523.261z"/>
	<path d="M929.257,404.462h-59.799v51.199h42.999v12.6h-42.999v55h61.199v12.6h-76.199V391.863h74.799V404.462z"/>
</g>
<path d="M755.059,759.86l-11.8,8.8l-13.6-15.8c-8.6,10.2-19.999,15.8-33.2,15.8c-20,0-34.199-12.4-34.199-32.8
	c0-19.8,11.6-34.399,24-48.599c-6.8-11-13.4-22.2-13.4-35.399c0-24.2,16.4-32.8,26.4-32.8c15.8,0,25.6,13.2,25.6,28
	c0,17.4-10.2,28.8-20.8,41.2l23.6,37.999c0.601-3,1-6.4,1.4-10c0.8-8.399,0.8-17.599,0.8-24h14.6c-0.2,16-0.8,32.599-6.8,47.799
	L755.059,759.86z M694.26,700.261c-8.4,10.2-17,21.599-17,35.399c0,12,6.6,20.4,19.2,20.4c10.6,0,19.4-5.4,25.2-14.2L694.26,700.261
	z M709.86,646.262c0-5.8-3.2-14.6-10.4-14.6c-8.6,0-11.6,11.399-11.6,18.2c0,10,3.4,17.6,8.4,26
	C702.46,666.462,709.86,658.062,709.86,646.262z"/>
<g>
	<path d="M553.162,877.862c-8.8-7.8-18.799-16.199-31.199-16.199c-12.8,0-23.2,8.8-23.2,21.999c0,7.6,1.4,14.399,20.8,26.199
		l11.399,7c26.4,16.2,33.6,23.8,33.6,40.6c0,25.8-17.2,41.199-42.399,41.199c-18.6,0-32.399-9-43.599-23.399l11.6-9.2
		c7,11.2,18.2,20,31.999,20c15,0,27.4-11.2,27.4-26.6c0-11.6-0.8-15.6-26.2-30.8l-13-7.8c-14.2-8.399-26.6-18.199-26.6-36.199
		c0-22.6,17.2-35.6,38.799-35.6c15,0,28.8,8,39.6,18L553.162,877.862z"/>
	<path d="M684.36,864.463h-59.799v51.198h43v12.601h-43v54.999h61.199v12.6h-76.199V851.862h74.799V864.463z"/>
	<path d="M804.359,864.463h-59.8v51.198h43v12.601h-43v54.999h61.199v12.6H729.56V851.862h74.799V864.463z"/>
	<path d="M862.558,915.262c10.399-1.2,34.999-26.2,48.999-65.199l14.8,7.8l-11.8,19.8c-19,31.8-28.8,39.8-37.999,45.6l62.198,72.599
		h-19.999l-54.999-67.799h-1.2v67.799h-15V851.862h15V915.262z"/>
</g>
<text transform="matrix(1 0 0 1 242.4247 2038.2032)"><tspan x="0" y="0" font-family="'LetterGothicStd-Bold'" font-size="200">HIDE</tspan><tspan x="179.997" y="230" font-family="'LetterGothicStd-Bold'" font-size="200">&amp;</tspan><tspan x="0" y="460" font-family="'LetterGothicStd-Bold'" font-size="200">SEEK</tspan></text>
</svg>
